# xmcd CD database file
#
# Track frame offsets:
#	182
#	33907
#	62607
#	91107
#	116157
#	159907
#
# Disc length: 2583 seconds
#
# Revision: 0
# Processed by: cddbd v1.5.2PL0 Copyright (c) Steve Scherf et al.
# Submitted via: CDex 1.70beta2
#
DISCID=3e0a1506
DTITLE=Milan Svoboda and Kontraband - Keep It Up
DYEAR=1989
DGENRE=Jazz
TTITLE0=Will She Or Won't She
TTITLE1=The Windmill
TTITLE2=Siesta
TTITLE3=The Cyclops
TTITLE4=Hugs And Kisses
TTITLE5=Keep It Up
EXTD=YEAR: 1989
EXTT0=
EXTT1=
EXTT2=
EXTT3=
EXTT4=
EXTT5=
PLAYORDER=
